<?xml version="1.0" encoding="UTF-8"?>
<svg xmlns="http://www.w3.org/2000/svg" viewBox="0 0 45 45" role="img" aria-labelledby="title desc" shape-rendering="crispEdges">
  <title id="title">Wasteland Connect QR-Code mit Logo</title>
  <desc id="desc">QR-Code zur URL https://wasteland-interactive.de/connect</desc>
  <rect width="100%" height="100%" fill="#ffffff"/>
  <path d="M4,4h7v1h-7zM14,4h1v1h-1zM18,4h4v1h-4zM25,4h1v1h-1zM28,4h5v1h-5zM34,4h7v1h-7zM4,5h1v1h-1zM10,5h1v1h-1zM12,5h1v1h-1zM17,5h1v1h-1zM19,5h1v1h-1zM23,5h3v1h-3zM27,5h1v1h-1zM29,5h1v1h-1zM32,5h1v1h-1zM34,5h1v1h-1zM40,5h1v1h-1zM4,6h1v1h-1zM6,6h3v1h-3zM10,6h1v1h-1zM13,6h2v1h-2zM16,6h1v1h-1zM18,6h1v1h-1zM20,6h5v1h-5zM26,6h2v1h-2zM30,6h2v1h-2zM34,6h1v1h-1zM36,6h3v1h-3zM40,6h1v1h-1zM4,7h1v1h-1zM6,7h3v1h-3zM10,7h1v1h-1zM13,7h3v1h-3zM19,7h1v1h-1zM21,7h2v1h-2zM25,7h3v1h-3zM29,7h1v1h-1zM32,7h1v1h-1zM34,7h1v1h-1zM36,7h3v1h-3zM40,7h1v1h-1zM4,8h1v1h-1zM6,8h3v1h-3zM10,8h1v1h-1zM13,8h1v1h-1zM16,8h1v1h-1zM19,8h2v1h-2zM24,8h2v1h-2zM27,8h1v1h-1zM30,8h2v1h-2zM34,8h1v1h-1zM36,8h3v1h-3zM40,8h1v1h-1zM4,9h1v1h-1zM10,9h1v1h-1zM12,9h2v1h-2zM15,9h1v1h-1zM17,9h1v1h-1zM19,9h1v1h-1zM22,9h1v1h-1zM24,9h1v1h-1zM27,9h1v1h-1zM32,9h1v1h-1zM34,9h1v1h-1zM40,9h1v1h-1zM4,10h7v1h-7zM12,10h1v1h-1zM14,10h1v1h-1zM16,10h1v1h-1zM18,10h1v1h-1zM20,10h1v1h-1zM22,10h1v1h-1zM24,10h1v1h-1zM26,10h1v1h-1zM28,10h1v1h-1zM30,10h1v1h-1zM32,10h1v1h-1zM34,10h7v1h-7zM12,11h3v1h-3zM17,11h2v1h-2zM20,11h1v1h-1zM24,11h1v1h-1zM26,11h1v1h-1zM28,11h2v1h-2zM8,12h4v1h-4zM13,12h3v1h-3zM17,12h1v1h-1zM20,12h1v1h-1zM23,12h1v1h-1zM26,12h1v1h-1zM29,12h1v1h-1zM31,12h1v1h-1zM34,12h2v1h-2zM39,12h1v1h-1zM5,13h2v1h-2zM9,13h1v1h-1zM11,13h1v1h-1zM13,13h4v1h-4zM18,13h1v1h-1zM20,13h1v1h-1zM23,13h1v1h-1zM25,13h1v1h-1zM27,13h2v1h-2zM30,13h1v1h-1zM36,13h1v1h-1zM39,13h1v1h-1zM5,14h1v1h-1zM7,14h2v1h-2zM10,14h1v1h-1zM14,14h2v1h-2zM17,14h4v1h-4zM22,14h2v1h-2zM25,14h2v1h-2zM29,14h5v1h-5zM36,14h1v1h-1zM5,15h3v1h-3zM9,15h1v1h-1zM16,15h8v1h-8zM27,15h1v1h-1zM30,15h2v1h-2zM33,15h1v1h-1zM35,15h2v1h-2zM38,15h1v1h-1zM4,16h1v1h-1zM6,16h5v1h-5zM17,16h2v1h-2zM20,16h1v1h-1zM22,16h1v1h-1zM24,16h3v1h-3zM28,16h1v1h-1zM33,16h2v1h-2zM38,16h3v1h-3zM5,17h4v1h-4zM12,17h1v1h-1zM15,17h3v1h-3zM20,17h1v1h-1zM22,17h2v1h-2zM25,17h2v1h-2zM31,17h3v1h-3zM36,17h1v1h-1zM38,17h2v1h-2zM4,18h2v1h-2zM10,18h3v1h-3zM14,18h1v1h-1zM16,18h4v1h-4zM23,18h2v1h-2zM31,18h3v1h-3zM35,18h4v1h-4zM14,19h3v1h-3zM20,19h1v1h-1zM22,19h2v1h-2zM26,19h1v1h-1zM28,19h1v1h-1zM30,19h1v1h-1zM38,19h1v1h-1zM40,19h1v1h-1zM5,20h1v1h-1zM9,20h2v1h-2zM12,20h2v1h-2zM17,20h3v1h-3zM21,20h1v1h-1zM23,20h4v1h-4zM28,20h1v1h-1zM33,20h3v1h-3zM37,20h2v1h-2zM40,20h1v1h-1zM6,21h4v1h-4zM11,21h1v1h-1zM15,21h2v1h-2zM19,21h2v1h-2zM25,21h3v1h-3zM30,21h2v1h-2zM36,21h2v1h-2zM6,22h1v1h-1zM9,22h3v1h-3zM13,22h1v1h-1zM15,22h2v1h-2zM18,22h1v1h-1zM20,22h2v1h-2zM24,22h1v1h-1zM27,22h1v1h-1zM29,22h4v1h-4zM37,22h2v1h-2zM4,23h3v1h-3zM8,23h1v1h-1zM11,23h5v1h-5zM17,23h1v1h-1zM21,23h2v1h-2zM24,23h4v1h-4zM31,23h1v1h-1zM33,23h1v1h-1zM35,23h2v1h-2zM38,23h2v1h-2zM6,24h1v1h-1zM10,24h2v1h-2zM13,24h4v1h-4zM19,24h1v1h-1zM22,24h1v1h-1zM25,24h4v1h-4zM33,24h2v1h-2zM38,24h1v1h-1zM5,25h4v1h-4zM12,25h2v1h-2zM15,25h1v1h-1zM18,25h1v1h-1zM21,25h2v1h-2zM24,25h1v1h-1zM28,25h4v1h-4zM36,25h1v1h-1zM5,26h4v1h-4zM10,26h1v1h-1zM15,26h2v1h-2zM18,26h1v1h-1zM20,26h1v1h-1zM22,26h1v1h-1zM24,26h2v1h-2zM27,26h2v1h-2zM31,26h2v1h-2zM37,26h1v1h-1zM5,27h2v1h-2zM11,27h2v1h-2zM14,27h4v1h-4zM20,27h2v1h-2zM23,27h2v1h-2zM26,27h3v1h-3zM30,27h1v1h-1zM32,27h1v1h-1zM35,27h1v1h-1zM38,27h1v1h-1zM40,27h1v1h-1zM4,28h1v1h-1zM7,28h2v1h-2zM10,28h1v1h-1zM12,28h2v1h-2zM15,28h1v1h-1zM19,28h2v1h-2zM22,28h1v1h-1zM24,28h1v1h-1zM26,28h1v1h-1zM29,28h7v1h-7zM38,28h2v1h-2zM4,29h2v1h-2zM8,29h1v1h-1zM14,29h1v1h-1zM16,29h3v1h-3zM21,29h5v1h-5zM28,29h2v1h-2zM31,29h2v1h-2zM36,29h3v1h-3zM6,30h2v1h-2zM9,30h4v1h-4zM20,30h1v1h-1zM22,30h1v1h-1zM24,30h8v1h-8zM33,30h1v1h-1zM36,30h1v1h-1zM6,31h1v1h-1zM9,31h1v1h-1zM11,31h1v1h-1zM13,31h7v1h-7zM22,31h1v1h-1zM26,31h2v1h-2zM30,31h1v1h-1zM32,31h1v1h-1zM34,31h3v1h-3zM38,31h2v1h-2zM4,32h4v1h-4zM9,32h3v1h-3zM15,32h1v1h-1zM19,32h1v1h-1zM21,32h5v1h-5zM28,32h1v1h-1zM32,32h5v1h-5zM38,32h3v1h-3zM12,33h3v1h-3zM18,33h1v1h-1zM20,33h1v1h-1zM23,33h1v1h-1zM25,33h4v1h-4zM30,33h3v1h-3zM36,33h2v1h-2zM39,33h1v1h-1zM4,34h7v1h-7zM12,34h1v1h-1zM17,34h1v1h-1zM19,34h3v1h-3zM24,34h1v1h-1zM26,34h5v1h-5zM32,34h1v1h-1zM34,34h1v1h-1zM36,34h3v1h-3zM4,35h1v1h-1zM10,35h1v1h-1zM12,35h1v1h-1zM14,35h2v1h-2zM21,35h2v1h-2zM27,35h2v1h-2zM32,35h1v1h-1zM36,35h1v1h-1zM38,35h1v1h-1zM4,36h1v1h-1zM6,36h3v1h-3zM10,36h1v1h-1zM12,36h4v1h-4zM17,36h2v1h-2zM22,36h2v1h-2zM25,36h1v1h-1zM28,36h1v1h-1zM32,36h7v1h-7zM40,36h1v1h-1zM4,37h1v1h-1zM6,37h3v1h-3zM10,37h1v1h-1zM13,37h1v1h-1zM16,37h3v1h-3zM22,37h3v1h-3zM26,37h1v1h-1zM29,37h1v1h-1zM31,37h1v1h-1zM34,37h2v1h-2zM37,37h1v1h-1zM4,38h1v1h-1zM6,38h3v1h-3zM10,38h1v1h-1zM16,38h1v1h-1zM18,38h3v1h-3zM22,38h2v1h-2zM30,38h2v1h-2zM34,38h2v1h-2zM38,38h2v1h-2zM4,39h1v1h-1zM10,39h1v1h-1zM13,39h1v1h-1zM15,39h2v1h-2zM21,39h1v1h-1zM23,39h4v1h-4zM28,39h1v1h-1zM31,39h1v1h-1zM34,39h2v1h-2zM38,39h2v1h-2zM4,40h7v1h-7zM13,40h1v1h-1zM15,40h2v1h-2zM18,40h1v1h-1zM20,40h1v1h-1zM22,40h2v1h-2zM27,40h2v1h-2zM31,40h1v1h-1zM35,40h2v1h-2zM38,40h3v1h-3z" fill="#000000"/>
  <rect x="16.2900" y="20.5408" width="12.4200" height="3.9184" rx="0.7" fill="#ffffff" stroke="#00bed2" stroke-opacity="0.42" stroke-width="0.08"/>
  <image href="../brand/wasteland-logo-640.webp" x="17.1000" y="21.3508" width="10.8000" height="2.2984" preserveAspectRatio="xMidYMid meet"/>
</svg>
